<svg width="700" height="700" xmlns="http://www.w3.org/2000/svg" xmlns:xlink="http://www.w3.org/1999/xlink">
 <defs>
  <symbol id="t">
   <path id="svg_1" d="m0.9375,-0.0625c-0.04297,0.03125 -0.08984,0.05469 -0.14062,0.0625c-0.05469,0.00781 -0.10938,0.01563 -0.17188,0.01563c-0.16797,0 -0.30469,-0.04688 -0.40625,-0.14062c-0.10547,-0.09376 -0.15625,-0.22267 -0.15625,-0.39063c0,-0.15625 0.05078,-0.28125 0.15625,-0.375c0.10156,-0.10156 0.23828,-0.15625 0.40625,-0.15625c0.0625,0 0.11719,0.01172 0.17188,0.03125c0.05078,0.01172 0.09766,0.02735 0.14062,0.04688l0,0.21875c-0.04297,-0.03906 -0.08984,-0.06641 -0.14062,-0.07813c-0.05469,-0.01953 -0.10547,-0.03125 -0.15625,-0.03125c-0.09375,0 -0.16797,0.03125 -0.21875,0.09375c-0.05469,0.0625 -0.07812,0.14844 -0.07812,0.25c0,0.10547 0.02343,0.1875 0.07812,0.25c0.05078,0.0625 0.125,0.09375 0.21875,0.09375c0.05078,0 0.10156,-0.0039 0.15625,-0.01562c0.05078,-0.01953 0.09766,-0.04688 0.14062,-0.07813l0,0.20312z"/>
  </symbol>
  <symbol id="c">
   <path id="svg_2" d="m0.6875,-0.5625c-0.02344,-0.00781 -0.04297,-0.01563 -0.0625,-0.01563c-0.02344,-0.00781 -0.04297,-0.01562 -0.0625,-0.01562c-0.0625,0 -0.11719,0.02344 -0.15625,0.0625c-0.03125,0.04297 -0.04687,0.10156 -0.04687,0.17188l0,0.35938l-0.23438,0l0,-0.76562l0.23438,0l0,0.125c0.03125,-0.05078 0.0664,-0.08594 0.10938,-0.10938c0.03906,-0.01953 0.09375,-0.03125 0.15625,-0.03125l0.01562,0l0.04688,0l-0.00001,0.21874z"/>
  </symbol>
  <symbol id="a">
   <path id="svg_3" d="m0.89062,-0.39062l0,0.07812l-0.57812,0c0,0.05469 0.01563,0.09375 0.04688,0.125c0.03906,0.03125 0.09375,0.04688 0.15625,0.04688c0.05078,0 0.10156,-0.00391 0.15625,-0.01563c0.0625,-0.01953 0.11719,-0.04687 0.17188,-0.07812l0,0.1875c-0.05469,0.02344 -0.10938,0.03906 -0.17188,0.04687c-0.05469,0.00782 -0.10938,0.01563 -0.17188,0.01563c-0.13672,0 -0.24609,-0.03125 -0.32812,-0.09375c-0.07422,-0.07031 -0.10939,-0.17578 -0.10939,-0.3125c0,-0.125 0.03516,-0.21875 0.10939,-0.28125c0.07031,-0.07031 0.17578,-0.10938 0.3125,-0.10938c0.125,0 0.22266,0.03906 0.29688,0.10938c0.07031,0.07422 0.10938,0.16797 0.10938,0.28125l-0.00002,0zm-0.25,-0.07813c0,-0.03906 -0.01562,-0.07812 -0.04687,-0.10938s-0.07032,-0.04687 -0.10938,-0.04687c-0.05469,0 -0.09375,0.01562 -0.125,0.04687c-0.02344,0.02344 -0.03907,0.0586 -0.04688,0.10938l0.32813,0z"/>
  </symbol>
  <symbol id="e">
   <path id="svg_4" d="m0.46875,-0.34375c-0.05469,0 -0.09375,0.01172 -0.125,0.03125c-0.02344,0.01172 -0.03125,0.03125 -0.03125,0.0625s0.00781,0.05859 0.03125,0.07812c0.01953,0.02344 0.04688,0.03125 0.07813,0.03125c0.05078,0 0.09375,-0.01562 0.125,-0.04687c0.03125,-0.03906 0.04687,-0.08203 0.04687,-0.125l0,-0.03125l-0.125,0zm0.375,-0.09375l0,0.4375l-0.25,0l0,-0.10938c-0.03125,0.04297 -0.07031,0.07422 -0.10938,0.09375c-0.04297,0.01953 -0.09375,0.03125 -0.15625,0.03125c-0.08594,0 -0.15234,-0.01953 -0.20312,-0.0625c-0.04297,-0.05078 -0.0625,-0.11328 -0.0625,-0.1875c0,-0.08203 0.03125,-0.14453 0.09375,-0.1875c0.0625,-0.05078 0.16016,-0.07813 0.29688,-0.07813l0.14062,0l0,-0.01562c0,-0.03125 -0.01562,-0.05469 -0.04687,-0.07813c-0.03125,-0.01953 -0.07813,-0.03125 -0.14062,-0.03125c-0.05469,0 -0.10547,0.00782 -0.15625,0.01563c-0.04297,0.01172 -0.08594,0.02734 -0.125,0.04687l0,-0.1875c0.05078,-0.00781 0.10156,-0.01562 0.15625,-0.01562c0.05078,-0.00781 0.10938,-0.01563 0.17188,-0.01563c0.13281,0 0.23438,0.02735 0.29688,0.07813c0.0625,0.05469 0.09375,0.14062 0.09375,0.26562l-0.00002,0.00001z"/>
  </symbol>
  <symbol id="b">
   <path id="svg_5" d="m0.39062,-0.98438l0,0.21875l0.25,0l0,0.17188l-0.25,0l0,0.32812c0,0.03125 0.00391,0.05859 0.01563,0.07813c0.00781,0.01171 0.03906,0.01562 0.09375,0.01562l0.125,0l0,0.17188l-0.21875,0c-0.09375,0 -0.16406,-0.01953 -0.20312,-0.0625c-0.04297,-0.03906 -0.0625,-0.10938 -0.0625,-0.20312l0,-0.32812l-0.125,0l0,-0.17188l0.125,0l0,-0.21875l0.24999,-0.00001z"/>
  </symbol>
  <symbol id="k">
   <path id="svg_6" d="m0.64062,-0.65625l0,-0.40625l0.25,0l0,1.0625l-0.25,0l0,-0.10938c-0.03125,0.04297 -0.07031,0.07422 -0.10938,0.09375c-0.04297,0.01953 -0.08984,0.03125 -0.14062,0.03125c-0.09375,0 -0.17188,-0.03516 -0.23438,-0.10938c-0.0625,-0.07031 -0.09375,-0.17188 -0.09375,-0.29688c0,-0.11328 0.03125,-0.20703 0.09375,-0.28125c0.0625,-0.07031 0.14062,-0.10938 0.23438,-0.10938c0.05078,0 0.09766,0.01172 0.14062,0.03125c0.03906,0.02344 0.07813,0.05469 0.10938,0.09375l0,0.00002zm-0.15625,0.5c0.05078,0 0.08594,-0.01953 0.10938,-0.0625c0.03125,-0.03906 0.04688,-0.09766 0.04688,-0.17188c0,-0.07031 -0.01563,-0.125 -0.04688,-0.15625c-0.02344,-0.03906 -0.05859,-0.0625 -0.10938,-0.0625c-0.05469,0 -0.09375,0.02344 -0.125,0.0625c-0.03125,0.03125 -0.04687,0.08594 -0.04687,0.15625c0,0.07422 0.01562,0.13281 0.04687,0.17188c0.03125,0.04297 0.07031,0.0625 0.125,0.0625z"/>
  </symbol>
  <symbol id="j">
   <path id="svg_7" d="m0.53125,-0.15625c0.05078,0 0.08594,-0.01953 0.10938,-0.0625c0.03125,-0.03906 0.04688,-0.09766 0.04688,-0.17188c0,-0.07031 -0.01563,-0.125 -0.04688,-0.15625c-0.02344,-0.03906 -0.05859,-0.0625 -0.10938,-0.0625c-0.05469,0 -0.09375,0.02344 -0.125,0.0625c-0.03125,0.03125 -0.04687,0.08594 -0.04687,0.15625c0,0.07422 0.01562,0.13281 0.04687,0.17188c0.03125,0.04297 0.07031,0.0625 0.125,0.0625zm-0.17188,-0.5c0.03906,-0.03906 0.07812,-0.07031 0.10938,-0.09375c0.03906,-0.01953 0.09375,-0.03125 0.15625,-0.03125c0.09375,0 0.16406,0.03906 0.21875,0.10938c0.0625,0.07422 0.09375,0.16797 0.09375,0.28125c0,0.125 -0.03125,0.22656 -0.09375,0.29688c-0.05469,0.07422 -0.125,0.10938 -0.21875,0.10938c-0.0625,0 -0.11719,-0.01172 -0.15625,-0.03125c-0.03125,-0.01953 -0.07031,-0.05078 -0.10938,-0.09375l0,0.10938l-0.23438,0l0,-1.0625l0.23438,0l0,0.40623z"/>
  </symbol>
  <symbol id="i">
   <path id="svg_8" d="m0.01563,-0.76562l0.25,0l0.20311,0.51562l0.17189,-0.51562l0.25,0l-0.32813,0.84375c-0.03125,0.08203 -0.07031,0.14062 -0.10938,0.17188c-0.04296,0.03125 -0.10156,0.04687 -0.17188,0.04687l-0.14062,0l0,-0.15625l0.07813,0c0.03906,0 0.07031,-0.00781 0.09375,-0.01562c0.01953,-0.01172 0.03516,-0.03906 0.04687,-0.07813l0,-0.01562l-0.34374,-0.79688z"/>
  </symbol>
  <symbol id="h">
   <path id="svg_9" d="m0.5,-0.57812c0.0625,0 0.10156,-0.00391 0.125,-0.01563c0.01953,-0.01953 0.03125,-0.05468 0.03125,-0.10938c0,-0.03906 -0.01172,-0.07031 -0.03125,-0.09375c-0.02344,-0.01953 -0.0625,-0.03125 -0.125,-0.03125l-0.10938,0l0,0.25l0.10938,0.00001zm-0.10938,0.1875l0,0.39062l-0.26562,0l0,-1.0312l0.40625,0c0.13281,0 0.23438,0.02734 0.29688,0.07812c0.0625,0.04297 0.09375,0.10938 0.09375,0.20312c0,0.07422 -0.01562,0.13281 -0.04687,0.17188c-0.03125,0.04297 -0.07813,0.07422 -0.14062,0.09375c0.03125,0.01172 0.0625,0.03125 0.09375,0.0625s0.05468,0.07422 0.07812,0.125l0.15625,0.29688l-0.29688,0l-0.125,-0.25c-0.02344,-0.05078 -0.04687,-0.08593 -0.07812,-0.10938c-0.02344,-0.01953 -0.05469,-0.03125 -0.09375,-0.03125l-0.07814,-0.00004z"/>
  </symbol>
  <symbol id="g">
   <path id="svg_10" d="m0.125,-0.76562l0.23438,0l0,0.76562l-0.23438,0l0,-0.76562zm0,-0.29688l0.23438,0l0,0.1875l-0.23438,0l0,-0.1875z"/>
  </symbol>
  <symbol id="f">
   <path id="svg_11" d="m0.625,-1.0625l0,0.15625l-0.14062,0c-0.03125,0 -0.05859,0.00781 -0.07812,0.01562c-0.01172,0.01172 -0.01563,0.03125 -0.01563,0.0625l0,0.0625l0.21875,0l0,0.17189l-0.21875,0l0,0.59375l-0.23438,0l0,-0.59375l-0.125,0l0,-0.17189l0.125,0l0,-0.0625c0,-0.08203 0.01953,-0.14061 0.0625,-0.17188c0.05078,-0.03906 0.125,-0.0625 0.21875,-0.0625l0.1875,0.00001z"/>
  </symbol>
  <symbol id="d">
   <path id="svg_12" d="m0.48438,-0.60938c-0.05469,0 -0.09375,0.02344 -0.125,0.0625c-0.03125,0.03125 -0.04687,0.08594 -0.04687,0.15625c0,0.08594 0.01562,0.14844 0.04687,0.1875c0.03125,0.03125 0.07031,0.04688 0.125,0.04688c0.05078,0 0.09375,-0.01563 0.125,-0.04688c0.03125,-0.03906 0.04688,-0.10156 0.04688,-0.1875c0,-0.07031 -0.01563,-0.125 -0.04688,-0.15625c-0.03125,-0.03906 -0.07422,-0.0625 -0.125,-0.0625zm0,-0.17188c0.13281,0 0.23828,0.03906 0.3125,0.10938c0.07031,0.0625 0.10938,0.15625 0.10938,0.28125c0,0.13672 -0.03906,0.24219 -0.10938,0.3125c-0.07422,0.0625 -0.17969,0.09375 -0.3125,0.09375c-0.13672,0 -0.24219,-0.03125 -0.3125,-0.09375c-0.07422,-0.07031 -0.10938,-0.17578 -0.10938,-0.3125c0,-0.125 0.03516,-0.21875 0.10938,-0.28125c0.07031,-0.07031 0.17578,-0.10938 0.3125,-0.10938z"/>
  </symbol>
  <symbol id="s">
   <path id="svg_13" d="m0.82812,-0.64062c0.03125,-0.05078 0.06641,-0.08594 0.10938,-0.10938c0.03906,-0.01953 0.08594,-0.03125 0.14062,-0.03125c0.09375,0 0.16016,0.02734 0.20312,0.07812c0.05078,0.05469 0.07813,0.13281 0.07813,0.23438l0,0.46875l-0.25,0l0,-0.40625l0,-0.04687c0,-0.05078 -0.01172,-0.08594 -0.03125,-0.10938c-0.01172,-0.03125 -0.03907,-0.04688 -0.07813,-0.04688c-0.04297,0 -0.07812,0.02344 -0.10938,0.0625c-0.02344,0.04297 -0.03125,0.10156 -0.03125,0.17188l0,0.375l-0.25,0l0,-0.40625c0,-0.08203 -0.01172,-0.13281 -0.03125,-0.15625c-0.01172,-0.03125 -0.03125,-0.04687 -0.0625,-0.04687c-0.05469,0 -0.09375,0.02344 -0.125,0.0625c-0.02344,0.04297 -0.03125,0.10156 -0.03125,0.17188l0,0.375l-0.25,0l0,-0.76562l0.25,0l0,0.10938c0.03125,-0.03906 0.06641,-0.07031 0.10938,-0.09375c0.03906,-0.01953 0.08203,-0.03125 0.125,-0.03125c0.05078,0 0.09766,0.01562 0.14062,0.04687c0.03906,0.02344 0.07031,0.05469 0.09375,0.09375l0.00001,-0.00001z"/>
  </symbol>
  <symbol id="r">
   <path id="svg_14" d="m0.89062,-0.46875l0,0.46875l-0.25,0l0,-0.35938l0,-0.125c0,-0.03125 -0.00781,-0.05078 -0.01562,-0.0625c-0.01172,-0.01953 -0.02735,-0.03516 -0.04688,-0.04688c-0.01172,-0.00781 -0.02734,-0.01562 -0.04687,-0.01562c-0.05469,0 -0.09375,0.02344 -0.125,0.0625c-0.03125,0.04297 -0.04688,0.10156 -0.04688,0.17188l0,0.375l-0.23438,0l0,-1.0625l0.23438,0l0,0.40625c0.03906,-0.03906 0.08203,-0.07031 0.125,-0.09375c0.03906,-0.01953 0.08594,-0.03125 0.14062,-0.03125c0.08203,0 0.14453,0.02734 0.1875,0.07812c0.05078,0.05469 0.07813,0.13281 0.07813,0.23439l0,-0.00001z"/>
  </symbol>
  <symbol id="q">
   <path id="svg_15" d="m0.125,-1.0312l0.29688,0l0.375,0.70312l0,-0.70312l0.25,0l0,1.0312l-0.29688,0l-0.375,-0.70312l0,0.70312l-0.25,0l0,-1.0312z"/>
  </symbol>
  <symbol id="p">
   <path id="svg_16" d="m0.10938,-0.29688l0,-0.46875l0.25,0l0,0.07812l0,0.15625l0,0.125l0,0.14062c0,0.02344 0.00391,0.03907 0.01563,0.04688c0.00781,0.02344 0.01953,0.03906 0.03125,0.04687l0.0625,0c0.05078,0 0.09375,-0.01562 0.125,-0.04687c0.03125,-0.03906 0.04687,-0.09766 0.04687,-0.17188l0,-0.375l0.25,0l0,0.76562l-0.25,0l0,-0.10938c-0.04297,0.04297 -0.08594,0.07422 -0.125,0.09375c-0.04297,0.01953 -0.08984,0.03125 -0.14062,0.03125c-0.08594,0 -0.15234,-0.02344 -0.20312,-0.07812c-0.04297,-0.05079 -0.0625,-0.12891 -0.0625,-0.23438l-0.00001,0.00002z"/>
  </symbol>
  <symbol id="o">
   <path id="svg_17" d="m0.89062,-0.46875l0,0.46875l-0.25,0l0,-0.35938l0,-0.125c0,-0.03125 -0.00781,-0.05078 -0.01562,-0.0625c-0.01172,-0.01953 -0.02735,-0.03516 -0.04688,-0.04688c-0.01172,-0.00781 -0.02734,-0.01562 -0.04687,-0.01562c-0.05469,0 -0.09375,0.02344 -0.125,0.0625c-0.03125,0.04297 -0.04688,0.10156 -0.04688,0.17188l0,0.375l-0.23438,0l0,-0.76562l0.23438,0l0,0.10938c0.03906,-0.03906 0.08203,-0.07031 0.125,-0.09375c0.03906,-0.01953 0.08594,-0.03125 0.14062,-0.03125c0.08203,0 0.14453,0.02734 0.1875,0.07812c0.05078,0.05469 0.07813,0.13281 0.07813,0.23438l0,-0.00001z"/>
  </symbol>
  <symbol id="n">
   <path id="svg_18" d="m0.125,-1.0312l0.4375,0c0.13281,0 0.23438,0.03125 0.29688,0.09375c0.07031,0.0625 0.10938,0.14844 0.10938,0.25c0,0.10547 -0.03906,0.1875 -0.10938,0.25c-0.0625,0.05469 -0.16406,0.07812 -0.29688,0.07812l-0.17188,0l0,0.35938l-0.26562,0l0,-1.03125zm0.26562,0.20312l0,0.28125l0.15625,0c0.03906,0 0.07813,-0.00781 0.10938,-0.03125c0.03125,-0.03125 0.04688,-0.06641 0.04688,-0.10938c0,-0.05078 -0.01563,-0.08594 -0.04688,-0.10938c-0.03125,-0.01953 -0.07031,-0.03125 -0.10938,-0.03125l-0.15625,0.00001z"/>
  </symbol>
  <symbol id="m">
   <path id="svg_19" d="m0.125,-0.76562l0.23438,0l0,0.75c0,0.10156 -0.02734,0.17969 -0.07812,0.23438c-0.04297,0.05078 -0.10938,0.07812 -0.20312,0.07812l-0.125,0l0,-0.15625l0.04687,0c0.03906,0 0.07031,-0.01171 0.09375,-0.03125c0.01953,-0.02343 0.03125,-0.0625 0.03125,-0.125l-0.00001,-0.75zm0,-0.29688l0.23438,0l0,0.1875l-0.23438,0l0,-0.1875z"/>
  </symbol>
  <symbol id="l">
   <path id="svg_20" d="m0.73438,-0.75l0,0.20312c-0.03125,-0.01953 -0.0625,-0.03516 -0.09375,-0.04688c-0.03125,-0.00781 -0.07031,-0.01562 -0.10938,-0.01562c-0.0625,0 -0.11719,0.02344 -0.15625,0.0625c-0.04297,0.04297 -0.0625,0.09375 -0.0625,0.15625c0,0.07422 0.01953,0.13281 0.0625,0.17188c0.03906,0.04297 0.09375,0.0625 0.15625,0.0625c0.03906,0 0.07813,-0.00391 0.10938,-0.01563c0.03906,-0.00781 0.07031,-0.02343 0.09375,-0.04687l0,0.20312c-0.03125,0.01172 -0.07031,0.01562 -0.10938,0.01562c-0.04297,0.00782 -0.08594,0.01563 -0.125,0.01563c-0.13672,0 -0.24609,-0.03125 -0.32812,-0.09375c-0.07422,-0.07031 -0.10938,-0.17578 -0.10938,-0.3125c0,-0.125 0.03516,-0.21875 0.10938,-0.28125c0.08203,-0.07031 0.19141,-0.10938 0.32812,-0.10938c0.03906,0 0.08203,0.00781 0.125,0.01562c0.03906,0 0.07813,0.00782 0.10938,0.01563l0,0.00001z"/>
  </symbol>
 </defs>
 <g>
  <title>background</title>
  <rect fill="none" id="canvas_background" height="402" width="582" y="-1" x="-1"/>
 </g>
 <g>
  <title>Layer 1</title>
  <g id="svg_21">
   <path id="svg_22" d="m504.33,508.38l-308.66,0c-15.996,0 -31.074,-6.2656 -42.457,-17.648c-11.379,-11.379 -17.648,-26.457 -17.648,-42.453l0,-40.637c0,-1.4883 0.0625,-3.0078 0.19141,-4.625c-0.125,-1.8047 -0.19141,-3.5742 -0.19141,-5.2656c0,-54.488 58.109,-98.816 129.54,-98.816l169.8,0c71.426,0 129.54,44.328 129.54,98.816c0,1.7031 -0.0625,3.4727 -0.19141,5.2656c0.12891,1.6172 0.19141,3.1328 0.19141,4.625l0,40.637c0,15.996 -6.2695,31.074 -17.648,42.453c-11.387,11.383 -26.461,17.648 -42.461,17.648l-0.006,0zm-239.23,-192.64c-30.422,0 -59.02,8.8398 -80.527,24.891c-20.77,15.504 -32.207,35.789 -32.207,57.125c0,1.4922 0.0625,3.0156 0.19141,4.6484c0.03516,0.46484 0.03516,0.93359 -0.00781,1.4023c-0.125,1.3867 -0.18359,2.6406 -0.18359,3.8398l0,40.637c0,23.879 19.426,43.305 43.305,43.305l308.66,0c23.879,0 43.305,-19.426 43.305,-43.305l0,-40.637c0,-1.1992 -0.0586,-2.4531 -0.18359,-3.8359c-0.04297,-0.46875 -0.04297,-0.94141 -0.00782,-1.4141c0.125,-1.5938 0.19141,-3.1562 0.19141,-4.6406c0,-21.336 -11.438,-41.621 -32.207,-57.125c-21.504,-16.051 -50.102,-24.891 -80.527,-24.891l-169.80201,0.0001z"/>
   <path id="svg_23" d="m350.09,265.5l-0.16797,0c-26.75,0 -52.016,-9.3008 -71.141,-26.188c-9.3906,-8.2891 -16.777,-17.953 -21.961,-28.723c-5.4141,-11.25 -8.1562,-23.188 -8.1562,-35.477l0,-33.109c0,-12.289 2.7461,-24.227 8.1562,-35.477c5.1836,-10.77 12.57,-20.434 21.961,-28.723c19.125,-16.887 44.391,-26.188 71.141,-26.188l0.16797,0c26.75,0 52.016,9.3008 71.141,26.188c9.3906,8.2891 16.777,17.953 21.961,28.723c5.4141,11.25 8.1562,23.188 8.1562,35.477l0,33.109c0,12.289 -2.7461,24.227 -8.1562,35.477c-5.1836,10.77 -12.57,20.434 -21.961,28.723c-19.129,16.887 -44.391,26.188 -71.141,26.188zm-0.17188,-197.08c-46.57,0 -84.457,33.012 -84.457,73.586l0,33.109c0,40.574 37.887,73.586 84.457,73.586l0.16797,0c46.57,0 84.457,-33.012 84.457,-73.586l0.00391,-33.109c0,-40.574 -37.887,-73.586 -84.457,-73.586l-0.17188,0z"/>
   <use id="svg_24" xlink:href="#t" y="564.199219" x="70"/>
   <use id="svg_25" xlink:href="#c" y="564.199219" x="71.027344"/>
   <use id="svg_26" xlink:href="#a" y="564.199219" x="71.71875"/>
   <use id="svg_27" xlink:href="#e" y="564.199219" x="72.667969"/>
   <use id="svg_28" xlink:href="#b" y="564.199219" x="73.613281"/>
   <use id="svg_29" xlink:href="#a" y="564.199219" x="74.28125"/>
   <use id="svg_30" xlink:href="#k" y="564.199219" x="75.230469"/>
   <use id="svg_31" xlink:href="#j" y="564.199219" x="76.71875"/>
   <use id="svg_32" xlink:href="#i" y="564.199219" x="77.722656"/>
   <use id="svg_33" xlink:href="#h" y="564.199219" x="79.121094"/>
   <use id="svg_34" xlink:href="#g" y="564.199219" x="80.199219"/>
   <use id="svg_35" xlink:href="#f" y="564.199219" x="80.679688"/>
   <use id="svg_36" xlink:href="#e" y="564.199219" x="81.289062"/>
   <use id="svg_37" xlink:href="#g" y="564.199219" x="82.234375"/>
   <use id="svg_38" xlink:href="#f" y="565.601562" x="70"/>
   <use id="svg_39" xlink:href="#c" y="565.601562" x="70.609375"/>
   <use id="svg_40" xlink:href="#d" y="565.601562" x="71.300781"/>
   <use id="svg_41" xlink:href="#s" y="565.601562" x="72.261719"/>
   <use id="svg_42" xlink:href="#b" y="565.601562" x="74.207031"/>
   <use id="svg_43" xlink:href="#r" y="565.601562" x="74.875"/>
   <use id="svg_44" xlink:href="#a" y="565.601562" x="75.875"/>
   <use id="svg_45" xlink:href="#q" y="565.601562" x="77.308594"/>
   <use id="svg_46" xlink:href="#d" y="565.601562" x="78.480469"/>
   <use id="svg_47" xlink:href="#p" y="565.601562" x="79.445312"/>
   <use id="svg_48" xlink:href="#o" y="565.601562" x="80.441406"/>
   <use id="svg_49" xlink:href="#n" y="565.601562" x="81.925781"/>
   <use id="svg_50" xlink:href="#c" y="565.601562" x="82.949219"/>
   <use id="svg_51" xlink:href="#d" y="565.601562" x="83.640625"/>
   <use id="svg_52" xlink:href="#m" y="565.601562" x="84.601563"/>
   <use id="svg_53" xlink:href="#a" y="565.601562" x="85.082031"/>
   <use id="svg_54" xlink:href="#l" y="565.601562" x="86.03125"/>
   <use id="svg_55" xlink:href="#b" y="565.601562" x="86.863281"/>
  </g>
 </g>
</svg>